<svg xmlns="http://www.w3.org/2000/svg" width="207" height="43" viewBox="0 0 207 43" class="ease">
    <style type="text/css">
        .saavn-logo-svg{fill-rule:evenodd;clip-rule:evenodd;fill:#2a2d36;}
        .jiosaavn-logo-bg{fill:#FFFFFF;}
        .jiosaavn-logo-svg{fill-rule:evenodd;clip-rule:evenodd;fill:#2BC5B4;}
    </style>
    <path class="saavn-logo-svg" d="M105.9,23.5c-1.1-1.2-3.2-2.3-6.3-3.5c-2.3-0.9-3.8-1.5-4.6-2c-0.8-0.5-1.4-0.9-1.7-1.4 c-0.4-0.5-0.5-1.1-0.5-1.8c0-1,0.5-1.9,1.4-2.5c1-0.6,2.4-0.9,4.2-0.9c1.9,0,3.9,0.4,6.2,1.3c1,0.4,1.3-0.4,1.3-0.4l0.7-1.6 c0,0,0.5-0.9-0.6-1.3c-2.4-0.9-4.8-1.4-7.3-1.4c-3,0-5.4,0.6-7.1,1.9c-1.7,1.2-2.6,3-2.6,5.1c0,1.2,0.3,2.2,0.8,3.1 c0.5,0.9,1.3,1.6,2.3,2.3c1,0.7,2.8,1.5,5.2,2.4c2.6,1,4.3,1.9,5.2,2.6c0.9,0.7,1.3,1.6,1.3,2.6c0,1.4-0.6,2.4-1.7,3.1 c-1.1,0.7-2.7,1-4.8,1c-1.3,0-2.7-0.2-4.2-0.6c-0.5-0.1-1.3-0.4-1.9-0.6c-1-0.4-1.2,0.5-1.2,0.5L89.4,33c0,0-0.6,0.9,0.4,1.3 c1.9,0.8,4.3,1.3,7.3,1.3c3.3,0,5.8-0.7,7.6-2c1.8-1.3,2.7-3.2,2.7-5.7C107.5,26.1,106.9,24.6,105.9,23.5z"/>
    <path class="saavn-logo-svg" d="M170.2,34.5c1.4-3.6,8-21.6,9.4-25.3c0.3-0.8-0.6-0.7-0.6-0.7h-2.8c0,0-0.6-0.1-0.8,0.6 c-3.1,8.7-5.1,14.4-6,17c-0.9,2.7-1.5,4.5-1.7,5.3h-0.2c-0.2-1.1-1-3.5-2.2-7.2c0,0-4.4-12.3-5.4-15.2c-0.2-0.7-0.9-0.6-0.9-0.6h-3 c0,0-0.7-0.1-0.4,0.7c1.4,3.7,8,21.6,9.4,25.3c0.2,0.6,0.7,0.7,0.7,0.7h3.7C169.5,35.2,170,35.1,170.2,34.5z"/>
    <path class="saavn-logo-svg" d="M202.5,34.4c0-3.4,0-16.5,0-16.5c0-3.4-0.8-5.8-2.4-7.4c-1.6-1.5-3.4-2.3-6.6-2.3c-1.8,0-3.4,0.4-4.9,1.1 c-1.5,0.7-2.6,1.7-3.4,3h-0.2c0,0-0.4-2.2-0.6-3.2c-0.1-0.6-0.7-0.5-0.7-0.5h-2c0,0-0.7-0.1-0.7,0.7c0,3.6,0,21.2,0,25.1 c0,0.9,0.6,0.8,0.6,0.8h2.6c0,0,0.7,0.1,0.7-0.8c0-2.7,0-13.2,0-13.2c0-3.4,0.7-5.9,1.9-7.4c1.3-1.5,3.3-2.2,6-2.2 c2.1,0,3.1,0.5,4,1.6c1,1.1,1.5,2.7,1.5,4.8c0,0,0,13,0,16.4c0,0.9,0.6,0.8,0.6,0.8h2.7C201.9,35.2,202.5,35.3,202.5,34.4z"/>
    <path class="saavn-logo-svg" d="M154.9,34.7c0-2.9,0-17.7,0-17.7c0-3.1-0.9-5.3-2.4-6.7c-1.5-1.4-4.1-2.1-7.2-2.1c-1.5,0-3.1,0.2-4.6,0.6 c-1.3,0.3-2.4,0.8-3.5,1.3c-0.9,0.4-0.4,1-0.4,1l0.7,1.7c0,0,0.1,0.7,1.2,0.3c2.4-1.1,4.5-1.6,6.5-1.6c1.9,0,3.7,0.5,4.6,1.5 c0.9,1,1.3,2.5,1.3,4.6v1.6l-4.8,0.1c-8.4,0.3-12.7,3.1-12.7,8.4c0,2.5,0.7,4.4,2.2,5.8c1.5,1.4,3.5,2,6.1,2c1.9,0,3.9,0,5.2-0.6 c1.3-0.6,2.9-1.7,4.2-3.3h0.4c0,0,0.1,2.1,0.1,3c0,0.5,0.5,0.5,0.5,0.5h2.3C154.4,35.2,154.9,35.2,154.9,34.7z M139,31.1 c-0.9-0.8-1.3-1.9-1.3-3.3c0-1.9,0.7-3.2,2.1-4.1c1.4-0.9,3.7-1.4,6.8-1.5l4.3-0.2v2.4c0,2.5-0.7,4.4-2.1,5.8 c-1.4,1.4-3.7,2.1-6.1,2.1C141,32.3,139.8,31.9,139,31.1z"/>
    <path class="saavn-logo-svg" d="M130.8,34.7c0-2.9,0-17.7,0-17.7c0-3.1-0.9-5.3-2.4-6.7c-1.5-1.4-4.1-2.1-7.2-2.1c-1.5,0-3.1,0.2-4.6,0.6 c-1.3,0.3-2.4,0.8-3.5,1.3c-0.9,0.4-0.4,1-0.4,1l0.7,1.7c0,0,0.1,0.7,1.2,0.3c2.4-1.1,4.5-1.6,6.5-1.6c1.9,0,3.7,0.5,4.6,1.5 c0.9,1,1.3,2.5,1.3,4.6v1.6l-4.8,0.1c-8.4,0.3-12.7,3.1-12.7,8.4c0,2.5,0.7,4.4,2.2,5.8c1.5,1.4,3.5,2,6.1,2c1.9,0,3.9,0,5.2-0.6 c1.3-0.6,2.9-1.7,4.2-3.3h0.4c0,0,0.1,2.1,0.1,3c0,0.5,0.5,0.5,0.5,0.5h2.3C130.3,35.2,130.8,35.2,130.8,34.7z M114.8,31.1 c-0.9-0.8-1.3-1.9-1.3-3.3c0-1.9,0.7-3.2,2.1-4.1c1.4-0.9,3.7-1.4,6.8-1.5l4.3-0.2v2.4c0,2.5-0.7,4.4-2.1,5.8 c-1.4,1.4-3.7,2.1-6.1,2.1C116.9,32.3,115.7,31.9,114.8,31.1z"/>
    <path class="saavn-logo-svg" d="M82.5,6.4c-0.9-2.5-2.9-4.5-5.4-5.4c-2.3-0.7-4.4-0.7-8.7-0.7H55.6c-4.3,0-6.4,0-8.7,0.7 c-2.5,0.9-4.5,2.9-5.4,5.4c-0.1,0.4-0.3,0.9-0.3,1.3c0.9,1.3,1.7,2.7,2.4,4.2c0.1-1.6,0.2-2.9,0.6-4.1c0.8-2.2,2-3.4,4.2-4.2 C50.4,3,52.7,3,56.4,3h11.2c3.7,0,6.1,0,8.1,0.6c2.2,0.8,3.4,2,4.2,4.2c0.6,2,0.6,4.3,0.6,8.1v11.2c0,3.7,0,6.1-0.6,8.1 c-0.8,2.2-2,3.4-4.2,4.2c-2,0.6-4.3,0.6-8.1,0.6H56.4c-3.7,0-6.1,0-8.1-0.6c-2.2-0.8-3.4-2-4.2-4.2c-0.4-1.2-0.5-2.5-0.6-4.1 c-0.7,1.5-1.4,2.9-2.4,4.2c0.1,0.4,0.2,0.9,0.3,1.3c0.9,2.5,2.9,4.5,5.4,5.4c2.3,0.7,4.4,0.7,8.7,0.7h12.8c4.3,0,6.4,0,8.7-0.7 c2.5-0.9,4.5-2.9,5.4-5.4c0.7-2.3,0.7-4.4,0.7-8.7V15.1C83.2,10.8,83.2,8.7,82.5,6.4z"/>
    <path class="saavn-logo-svg" d="M72,37.1c0,0-4.2,0-7.1,0c-0.3,0-1-0.5-0.4-1.1c3.6-3.9,8.1-5.2,12.4-6.7c0.6-0.2,0.7,0.4,0.7,0.6 c0,1.4,0,1.5,0,1.5C77.6,34.7,75.3,37.1,72,37.1z M58.7,36.4c-0.7-5-3.1-13.7-12-20.1c-0.1-0.1-0.3-0.2-0.3-0.6c0-1.5,0-4.1,0-4.1 c0-4.5,3.1-5.6,4.5-5.6c0.3,0,0.5,0.1,0.7,0.4c4.3,9.3,6.9,15.2,8.6,29.3c0,0.3,0.1,0.4,0.2,0C61.5,33,67.1,20,64.9,6.6 c-0.1-0.5,0.3-0.7,0.6-0.7c2.3,0,6.5,0,6.5,0c3.3,0,5.6,2.3,5.6,5.7c0,0,0,4.1,0,5.8c0,0.1,0,0.4-0.4,0.6 c-10.1,5.3-14,13.9-15.3,18.5c-0.1,0.4-0.2,0.7-0.6,0.7c-0.5,0-1.4,0-2,0C58.9,37.1,58.8,36.9,58.7,36.4z M52.1,37.1 c-3.4,0-5.7-2.1-5.7-5.8c0,0,0,0.7,0-0.4c0-0.2,0.1-0.7,0.7-0.6c3.4,1.1,7.1,2.1,9.8,5.7c0.3,0.4,0,1.1-0.5,1.1 C54.2,37.1,52.1,37.1,52.1,37.1z"/>
    <ellipse transform="matrix(6.023686e-03 -1 1 6.023686e-03 3.602267e-02 43.0352)" class="jiosaavn-logo-bg" cx="21.7" cy="21.5" rx="19.5" ry="19.5"/>
    <path class="jiosaavn-logo-svg" d="M31.1,19.7c-1.5,0-2.6,1.3-2.6,2.8c0,1.5,1.2,2.8,2.6,2.8c1.5,0,2.6-1.3,2.6-2.8C33.8,21,32.6,19.7,31.1,19.7z"/>
    <path class="jiosaavn-logo-svg" d="M21.7,0.3C10,0.3,0.5,9.8,0.5,21.5S10,42.7,21.7,42.7c11.7,0,21.2-9.5,21.2-21.2S33.4,0.3,21.7,0.3z M16.6,22.7c0,10.8-17.2,6-10.3,0.5c1.6,2.3,4.8,2.1,5.1-0.1l0.1-8.8c0.2-2.3,4.6-2.7,5.1,0V22.7z M23.1,26.8c0,1.1-0.9,2-2,2 h-0.9c-1.1,0-2-0.9-2-2v-8.5c0-1.1,0.9-2,2-2H21c1.1,0,2,0.9,2,2V26.8z M23.1,12.9c0,1.1-0.9,2-2,2h-1c-1.1,0-2-0.9-2-2v-0.5 c0-1.1,0.9-2,2-2h1c1.1,0,2,0.9,2,2V12.9z M31.1,29.1c-3.7,0-6.7-2.9-6.7-6.6c0-3.6,3-6.6,6.7-6.6c3.7,0,6.7,2.9,6.7,6.6 C37.9,26.2,34.8,29.1,31.1,29.1z"/>
</svg>
